<mxfile host="app.diagrams.net" agent="Mozilla/5.0 (Windows NT 10.0; Win64; x64) AppleWebKit/537.36 (KHTML, like Gecko) Chrome/130.0.0.0 Safari/537.36" version="24.8.3">
  <diagram name="Страница — 1" id="RGlEnjP4Q5MJ_EAzEtDM">
    <mxGraphModel dx="1195" dy="733" grid="1" gridSize="10" guides="1" tooltips="1" connect="1" arrows="1" fold="1" page="1" pageScale="1" pageWidth="827" pageHeight="1169" math="0" shadow="0">
      <root>
        <mxCell id="0" />
        <mxCell id="1" parent="0" />
        <mxCell id="4Yv4w1ldaMEZDNmSyz41-57" value="" style="edgeStyle=orthogonalEdgeStyle;rounded=0;orthogonalLoop=1;jettySize=auto;html=1;fontFamily=Helvetica;fontSize=12;fontColor=default;fontStyle=0;entryX=0.006;entryY=-0.072;entryDx=0;entryDy=0;entryPerimeter=0;" edge="1" parent="1" source="4Yv4w1ldaMEZDNmSyz41-1" target="4Yv4w1ldaMEZDNmSyz41-39">
          <mxGeometry relative="1" as="geometry">
            <mxPoint x="80" y="520" as="targetPoint" />
          </mxGeometry>
        </mxCell>
        <mxCell id="4Yv4w1ldaMEZDNmSyz41-1" value="Интеграционные решения" style="rounded=1;whiteSpace=wrap;html=1;" vertex="1" parent="1">
          <mxGeometry x="20" y="10" width="120" height="60" as="geometry" />
        </mxCell>
        <mxCell id="4Yv4w1ldaMEZDNmSyz41-9" value="&lt;div style=&quot;font-size: 16px; line-height: 21px; white-space: pre;&quot;&gt;&lt;span style=&quot;font-size: 16px;&quot;&gt;Чаты экспертов&lt;/span&gt;&lt;/div&gt;" style="swimlane;fontStyle=1;childLayout=stackLayout;horizontal=1;startSize=30;horizontalStack=0;resizeParent=1;resizeParentMax=0;resizeLast=0;collapsible=1;marginBottom=0;whiteSpace=wrap;html=1;fillColor=#647687;strokeColor=#314354;swimlaneFillColor=none;rounded=1;shadow=0;glass=0;fillStyle=solid;labelBorderColor=none;labelBackgroundColor=none;fontSize=16;fontFamily=Times New Roman;fontColor=#ffffff;align=center;" vertex="1" parent="1">
          <mxGeometry x="120" y="110" width="140" height="120" as="geometry">
            <mxRectangle x="120" y="110" width="130" height="30" as="alternateBounds" />
          </mxGeometry>
        </mxCell>
        <mxCell id="4Yv4w1ldaMEZDNmSyz41-10" value="&lt;div style=&quot;font-size: 14px; line-height: 21px; white-space: pre;&quot;&gt;&lt;span style=&quot;&quot;&gt;&lt;span&gt;Антонова Дарья&lt;/span&gt;&lt;/span&gt;&lt;/div&gt;" style="text;strokeColor=#314354;fillColor=#647687;align=left;verticalAlign=middle;spacingLeft=4;spacingRight=4;overflow=hidden;points=[[0,0.5],[1,0.5]];portConstraint=eastwest;rotatable=0;whiteSpace=wrap;html=1;fontColor=#ffffff;labelBackgroundColor=none;fontFamily=Times New Roman;fontStyle=2" vertex="1" parent="4Yv4w1ldaMEZDNmSyz41-9">
          <mxGeometry y="30" width="140" height="30" as="geometry" />
        </mxCell>
        <mxCell id="4Yv4w1ldaMEZDNmSyz41-11" value="&lt;div style=&quot;font-size: 14px; line-height: 21px; white-space: pre;&quot;&gt;&lt;span style=&quot;&quot;&gt;Тихонова Дарья&lt;/span&gt;&lt;/div&gt;" style="text;strokeColor=#314354;fillColor=#647687;align=left;verticalAlign=middle;spacingLeft=4;spacingRight=4;overflow=hidden;points=[[0,0.5],[1,0.5]];portConstraint=eastwest;rotatable=0;whiteSpace=wrap;html=1;fontStyle=2;fontColor=#ffffff;labelBackgroundColor=none;fontFamily=Times New Roman;" vertex="1" parent="4Yv4w1ldaMEZDNmSyz41-9">
          <mxGeometry y="60" width="140" height="30" as="geometry" />
        </mxCell>
        <mxCell id="4Yv4w1ldaMEZDNmSyz41-12" value="&lt;div style=&quot;font-size: 14px; line-height: 21px; white-space: pre;&quot;&gt;&lt;span style=&quot;&quot;&gt;Лебедев Андрей&lt;/span&gt;&lt;/div&gt;" style="text;strokeColor=#314354;fillColor=#647687;align=left;verticalAlign=middle;spacingLeft=4;spacingRight=4;overflow=hidden;points=[[0,0.5],[1,0.5]];portConstraint=eastwest;rotatable=0;whiteSpace=wrap;html=1;fontStyle=2;labelBackgroundColor=none;fontColor=#ffffff;fontFamily=Times New Roman;" vertex="1" parent="4Yv4w1ldaMEZDNmSyz41-9">
          <mxGeometry y="90" width="140" height="30" as="geometry" />
        </mxCell>
        <mxCell id="4Yv4w1ldaMEZDNmSyz41-31" value="&lt;div style=&quot;font-size: 16px; line-height: 21px; white-space: pre;&quot;&gt;&lt;span style=&quot;font-size: 16px;&quot;&gt;1я группа&lt;/span&gt;&lt;/div&gt;" style="swimlane;fontStyle=1;childLayout=stackLayout;horizontal=1;startSize=30;horizontalStack=0;resizeParent=1;resizeParentMax=0;resizeLast=0;collapsible=1;marginBottom=0;whiteSpace=wrap;html=1;fillColor=#6d8764;strokeColor=#3A5431;swimlaneFillColor=none;rounded=1;shadow=0;glass=0;fillStyle=solid;labelBorderColor=none;labelBackgroundColor=none;fontSize=16;fontFamily=Times New Roman;fontColor=#ffffff;align=center;" vertex="1" parent="1">
          <mxGeometry x="160" y="280" width="140" height="180" as="geometry">
            <mxRectangle x="460" y="110" width="130" height="30" as="alternateBounds" />
          </mxGeometry>
        </mxCell>
        <mxCell id="4Yv4w1ldaMEZDNmSyz41-32" value="&lt;div style=&quot;font-size: 14px; line-height: 21px; white-space: pre;&quot;&gt;&lt;div style=&quot;line-height: 21px;&quot;&gt;&lt;span style=&quot;&quot;&gt;Тихонов Александр&lt;/span&gt;&lt;/div&gt;&lt;/div&gt;" style="text;strokeColor=#3A5431;fillColor=#6d8764;align=center;verticalAlign=middle;spacingLeft=4;spacingRight=4;overflow=hidden;points=[[0,0.5],[1,0.5]];portConstraint=eastwest;rotatable=0;whiteSpace=wrap;html=1;labelBackgroundColor=none;fontColor=#ffffff;labelBorderColor=none;fontFamily=Times New Roman;fontStyle=5" vertex="1" parent="4Yv4w1ldaMEZDNmSyz41-31">
          <mxGeometry y="30" width="140" height="30" as="geometry" />
        </mxCell>
        <mxCell id="4Yv4w1ldaMEZDNmSyz41-33" value="&lt;div style=&quot;font-size: 14px; line-height: 21px; white-space: pre;&quot;&gt;&lt;div style=&quot;line-height: 21px;&quot;&gt;&lt;span style=&quot;&quot;&gt;Короткевич Анастасия&lt;/span&gt;&lt;/div&gt;&lt;/div&gt;" style="text;strokeColor=#3A5431;fillColor=#6d8764;align=left;verticalAlign=middle;spacingLeft=4;spacingRight=4;overflow=hidden;points=[[0,0.5],[1,0.5]];portConstraint=eastwest;rotatable=0;whiteSpace=wrap;html=1;fontStyle=2;fontColor=#ffffff;labelBorderColor=none;labelBackgroundColor=none;fontFamily=Times New Roman;" vertex="1" parent="4Yv4w1ldaMEZDNmSyz41-31">
          <mxGeometry y="60" width="140" height="30" as="geometry" />
        </mxCell>
        <mxCell id="4Yv4w1ldaMEZDNmSyz41-34" value="&lt;div style=&quot;font-size: 14px; line-height: 21px; white-space: pre;&quot;&gt;&lt;div style=&quot;line-height: 21px;&quot;&gt;&lt;span style=&quot;&quot;&gt;Кузнецов Илья&lt;/span&gt;&lt;/div&gt;&lt;/div&gt;" style="text;strokeColor=#3A5431;fillColor=#6d8764;align=left;verticalAlign=middle;spacingLeft=4;spacingRight=4;overflow=hidden;points=[[0,0.5],[1,0.5]];portConstraint=eastwest;rotatable=0;whiteSpace=wrap;html=1;fontStyle=2;labelBackgroundColor=none;fontColor=#ffffff;labelBorderColor=none;fontFamily=Times New Roman;" vertex="1" parent="4Yv4w1ldaMEZDNmSyz41-31">
          <mxGeometry y="90" width="140" height="30" as="geometry" />
        </mxCell>
        <mxCell id="4Yv4w1ldaMEZDNmSyz41-35" value="&lt;div style=&quot;font-size: 14px; line-height: 21px; white-space: pre;&quot;&gt;&lt;div style=&quot;line-height: 21px;&quot;&gt;&lt;span style=&quot;&quot;&gt;Лебедев Андрей&lt;/span&gt;&lt;/div&gt;&lt;/div&gt;" style="text;strokeColor=#3A5431;fillColor=#6d8764;align=left;verticalAlign=middle;spacingLeft=4;spacingRight=4;overflow=hidden;points=[[0,0.5],[1,0.5]];portConstraint=eastwest;rotatable=0;whiteSpace=wrap;html=1;fontStyle=2;labelBackgroundColor=none;fontColor=#ffffff;labelBorderColor=none;fontFamily=Times New Roman;" vertex="1" parent="4Yv4w1ldaMEZDNmSyz41-31">
          <mxGeometry y="120" width="140" height="30" as="geometry" />
        </mxCell>
        <mxCell id="4Yv4w1ldaMEZDNmSyz41-36" value="&lt;div style=&quot;font-size: 14px; line-height: 21px; white-space: pre;&quot;&gt;&lt;div style=&quot;line-height: 21px;&quot;&gt;&lt;div style=&quot;line-height: 21px;&quot;&gt;&lt;span style=&quot;&quot;&gt;Тимофеев Алексей&lt;/span&gt;&lt;/div&gt;&lt;/div&gt;&lt;/div&gt;" style="text;strokeColor=#3A5431;fillColor=#6d8764;align=left;verticalAlign=middle;spacingLeft=4;spacingRight=4;overflow=hidden;points=[[0,0.5],[1,0.5]];portConstraint=eastwest;rotatable=0;whiteSpace=wrap;html=1;fontStyle=2;labelBackgroundColor=none;fontColor=#ffffff;labelBorderColor=none;fontFamily=Times New Roman;" vertex="1" parent="4Yv4w1ldaMEZDNmSyz41-31">
          <mxGeometry y="150" width="140" height="30" as="geometry" />
        </mxCell>
        <mxCell id="4Yv4w1ldaMEZDNmSyz41-38" value="&lt;div style=&quot;font-size: 16px; line-height: 21px; white-space: pre;&quot;&gt;&lt;span style=&quot;font-size: 16px;&quot;&gt;2я группа&lt;/span&gt;&lt;/div&gt;" style="swimlane;fontStyle=1;childLayout=stackLayout;horizontal=1;startSize=30;horizontalStack=0;resizeParent=1;resizeParentMax=0;resizeLast=0;collapsible=1;marginBottom=0;whiteSpace=wrap;html=1;fillColor=#6d8764;strokeColor=#3A5431;swimlaneFillColor=none;rounded=1;shadow=0;glass=0;fillStyle=solid;labelBorderColor=none;labelBackgroundColor=none;fontSize=16;fontFamily=Times New Roman;fontColor=#ffffff;align=center;" vertex="1" parent="1">
          <mxGeometry x="160" y="490" width="140" height="150" as="geometry">
            <mxRectangle x="460" y="110" width="130" height="30" as="alternateBounds" />
          </mxGeometry>
        </mxCell>
        <mxCell id="4Yv4w1ldaMEZDNmSyz41-39" value="&lt;div style=&quot;line-height: 21px;&quot;&gt;&lt;div style=&quot;line-height: 21px;&quot;&gt;&lt;font&gt;&lt;span style=&quot;font-size: 14px; white-space: pre;&quot;&gt;Соколов Лев&lt;/span&gt;&lt;/font&gt;&lt;/div&gt;&lt;/div&gt;" style="text;strokeColor=#3A5431;fillColor=#6d8764;align=center;verticalAlign=middle;spacingLeft=4;spacingRight=4;overflow=hidden;points=[[0,0.5],[1,0.5]];portConstraint=eastwest;rotatable=0;whiteSpace=wrap;html=1;labelBackgroundColor=none;labelBorderColor=none;fontColor=#ffffff;fontFamily=Times New Roman;fontStyle=5" vertex="1" parent="4Yv4w1ldaMEZDNmSyz41-38">
          <mxGeometry y="30" width="140" height="30" as="geometry" />
        </mxCell>
        <mxCell id="4Yv4w1ldaMEZDNmSyz41-40" value="&lt;div style=&quot;line-height: 21px;&quot;&gt;&lt;div style=&quot;line-height: 21px;&quot;&gt;&lt;font&gt;&lt;span style=&quot;font-size: 14px; white-space: pre;&quot;&gt;Лебедев Алексей&lt;/span&gt;&lt;/font&gt;&lt;/div&gt;&lt;/div&gt;" style="text;strokeColor=#3A5431;fillColor=#6d8764;align=left;verticalAlign=middle;spacingLeft=4;spacingRight=4;overflow=hidden;points=[[0,0.5],[1,0.5]];portConstraint=eastwest;rotatable=0;whiteSpace=wrap;html=1;fontStyle=2;labelBorderColor=none;fontColor=#ffffff;labelBackgroundColor=none;fontFamily=Times New Roman;" vertex="1" parent="4Yv4w1ldaMEZDNmSyz41-38">
          <mxGeometry y="60" width="140" height="30" as="geometry" />
        </mxCell>
        <mxCell id="4Yv4w1ldaMEZDNmSyz41-41" value="&lt;div style=&quot;line-height: 21px;&quot;&gt;&lt;div style=&quot;line-height: 21px;&quot;&gt;&lt;font&gt;&lt;span style=&quot;font-size: 14px; white-space: pre;&quot;&gt;Мальев Никита&lt;/span&gt;&lt;/font&gt;&lt;/div&gt;&lt;/div&gt;" style="text;strokeColor=#3A5431;fillColor=#6d8764;align=left;verticalAlign=middle;spacingLeft=4;spacingRight=4;overflow=hidden;points=[[0,0.5],[1,0.5]];portConstraint=eastwest;rotatable=0;whiteSpace=wrap;html=1;fontStyle=2;labelBackgroundColor=none;labelBorderColor=none;fontColor=#ffffff;fontFamily=Times New Roman;" vertex="1" parent="4Yv4w1ldaMEZDNmSyz41-38">
          <mxGeometry y="90" width="140" height="30" as="geometry" />
        </mxCell>
        <mxCell id="4Yv4w1ldaMEZDNmSyz41-42" value="&lt;div style=&quot;line-height: 21px;&quot;&gt;&lt;div style=&quot;line-height: 21px;&quot;&gt;&lt;font&gt;&lt;span style=&quot;font-size: 14px; white-space: pre;&quot;&gt;Лыхов Евгений&lt;/span&gt;&lt;/font&gt;&lt;/div&gt;&lt;/div&gt;" style="text;strokeColor=#3A5431;fillColor=#6d8764;align=left;verticalAlign=middle;spacingLeft=4;spacingRight=4;overflow=hidden;points=[[0,0.5],[1,0.5]];portConstraint=eastwest;rotatable=0;whiteSpace=wrap;html=1;fontStyle=2;labelBackgroundColor=none;labelBorderColor=none;fontColor=#ffffff;fontFamily=Times New Roman;" vertex="1" parent="4Yv4w1ldaMEZDNmSyz41-38">
          <mxGeometry y="120" width="140" height="30" as="geometry" />
        </mxCell>
        <mxCell id="4Yv4w1ldaMEZDNmSyz41-59" value="" style="edgeStyle=orthogonalEdgeStyle;rounded=0;orthogonalLoop=1;jettySize=auto;html=1;fontFamily=Helvetica;fontSize=12;fontColor=default;fontStyle=0;entryX=0.004;entryY=-0.044;entryDx=0;entryDy=0;exitX=0.5;exitY=1;exitDx=0;exitDy=0;entryPerimeter=0;" edge="1" parent="1" source="4Yv4w1ldaMEZDNmSyz41-1" target="4Yv4w1ldaMEZDNmSyz41-10">
          <mxGeometry relative="1" as="geometry">
            <mxPoint x="20" y="100" as="sourcePoint" />
            <mxPoint x="101" y="165" as="targetPoint" />
          </mxGeometry>
        </mxCell>
        <mxCell id="4Yv4w1ldaMEZDNmSyz41-60" value="" style="edgeStyle=orthogonalEdgeStyle;rounded=0;orthogonalLoop=1;jettySize=auto;html=1;fontFamily=Helvetica;fontSize=12;fontColor=default;fontStyle=0;entryX=0.01;entryY=-0.072;entryDx=0;entryDy=0;exitX=0.5;exitY=1;exitDx=0;exitDy=0;entryPerimeter=0;" edge="1" parent="1" source="4Yv4w1ldaMEZDNmSyz41-1" target="4Yv4w1ldaMEZDNmSyz41-32">
          <mxGeometry relative="1" as="geometry">
            <mxPoint x="90" y="80" as="sourcePoint" />
            <mxPoint x="131" y="149" as="targetPoint" />
          </mxGeometry>
        </mxCell>
        <mxCell id="4Yv4w1ldaMEZDNmSyz41-61" value="Критичный" style="rounded=1;whiteSpace=wrap;html=1;shadow=0;glass=0;strokeColor=#d79b00;align=center;verticalAlign=middle;swimlaneFillColor=none;fontFamily=Times New Roman;fontSize=19;fontStyle=4;fillColor=#FF3333;labelBackgroundColor=none;fontColor=#FFFFFF;" vertex="1" parent="1">
          <mxGeometry x="570" y="400" width="120" height="60" as="geometry" />
        </mxCell>
        <mxCell id="4Yv4w1ldaMEZDNmSyz41-62" value="Средний" style="rounded=1;whiteSpace=wrap;html=1;shadow=0;glass=0;strokeColor=#d79b00;align=center;verticalAlign=middle;swimlaneFillColor=none;fontFamily=Times New Roman;fontSize=19;fontStyle=4;fillColor=#663300;labelBackgroundColor=none;fontColor=#FFFFFF;" vertex="1" parent="1">
          <mxGeometry x="570" y="480" width="120" height="60" as="geometry" />
        </mxCell>
        <mxCell id="4Yv4w1ldaMEZDNmSyz41-63" value="Низкий" style="rounded=1;whiteSpace=wrap;html=1;shadow=0;glass=0;strokeColor=#d79b00;align=center;verticalAlign=middle;swimlaneFillColor=none;fontFamily=Times New Roman;fontSize=19;fontStyle=4;fillColor=#003300;labelBackgroundColor=none;fontColor=#FFFFFF;" vertex="1" parent="1">
          <mxGeometry x="570" y="550" width="120" height="60" as="geometry" />
        </mxCell>
        <mxCell id="4Yv4w1ldaMEZDNmSyz41-68" style="edgeStyle=orthogonalEdgeStyle;rounded=0;orthogonalLoop=1;jettySize=auto;html=1;entryX=1;entryY=0.5;entryDx=0;entryDy=0;fontFamily=Helvetica;fontSize=12;fontColor=default;fontStyle=0;exitX=1;exitY=0.5;exitDx=0;exitDy=0;" edge="1" parent="1" source="4Yv4w1ldaMEZDNmSyz41-64" target="4Yv4w1ldaMEZDNmSyz41-61">
          <mxGeometry relative="1" as="geometry">
            <Array as="points">
              <mxPoint x="760" y="120" />
              <mxPoint x="760" y="430" />
            </Array>
          </mxGeometry>
        </mxCell>
        <mxCell id="4Yv4w1ldaMEZDNmSyz41-69" style="edgeStyle=orthogonalEdgeStyle;rounded=0;orthogonalLoop=1;jettySize=auto;html=1;exitX=1;exitY=0.5;exitDx=0;exitDy=0;entryX=1;entryY=0.5;entryDx=0;entryDy=0;fontFamily=Helvetica;fontSize=12;fontColor=default;fontStyle=0;" edge="1" parent="1" source="4Yv4w1ldaMEZDNmSyz41-64" target="4Yv4w1ldaMEZDNmSyz41-62">
          <mxGeometry relative="1" as="geometry">
            <Array as="points">
              <mxPoint x="760" y="120" />
              <mxPoint x="760" y="510" />
            </Array>
          </mxGeometry>
        </mxCell>
        <mxCell id="4Yv4w1ldaMEZDNmSyz41-102" style="edgeStyle=orthogonalEdgeStyle;rounded=0;orthogonalLoop=1;jettySize=auto;html=1;fontFamily=Helvetica;fontSize=12;fontColor=default;fontStyle=0;entryX=1;entryY=0.5;entryDx=0;entryDy=0;" edge="1" parent="1" source="4Yv4w1ldaMEZDNmSyz41-64" target="4Yv4w1ldaMEZDNmSyz41-63">
          <mxGeometry relative="1" as="geometry">
            <mxPoint x="760" y="570" as="targetPoint" />
            <Array as="points">
              <mxPoint x="760" y="120" />
              <mxPoint x="760" y="580" />
            </Array>
          </mxGeometry>
        </mxCell>
        <mxCell id="4Yv4w1ldaMEZDNmSyz41-64" value="&lt;font style=&quot;font-size: 17px;&quot;&gt;Нераспределенные&lt;/font&gt;" style="ellipse;whiteSpace=wrap;html=1;rounded=1;shadow=0;glass=0;strokeColor=none;align=center;verticalAlign=middle;swimlaneFillColor=none;fontFamily=Times New Roman;fontSize=17;fontStyle=3;fillColor=#bac8d3;fontColor=#FFFFFF;" vertex="1" parent="1">
          <mxGeometry x="550" y="70" width="186" height="100" as="geometry" />
        </mxCell>
        <mxCell id="4Yv4w1ldaMEZDNmSyz41-70" style="edgeStyle=orthogonalEdgeStyle;rounded=0;orthogonalLoop=1;jettySize=auto;html=1;entryX=0;entryY=0.5;entryDx=0;entryDy=0;fontFamily=Helvetica;fontSize=12;fontColor=default;fontStyle=0;" edge="1" parent="1" source="4Yv4w1ldaMEZDNmSyz41-32" target="4Yv4w1ldaMEZDNmSyz41-64">
          <mxGeometry relative="1" as="geometry" />
        </mxCell>
        <mxCell id="4Yv4w1ldaMEZDNmSyz41-80" style="edgeStyle=orthogonalEdgeStyle;rounded=0;orthogonalLoop=1;jettySize=auto;html=1;entryX=0;entryY=0.5;entryDx=0;entryDy=0;fontFamily=Helvetica;fontSize=12;fontColor=default;fontStyle=0;" edge="1" parent="1" source="4Yv4w1ldaMEZDNmSyz41-87" target="4Yv4w1ldaMEZDNmSyz41-61">
          <mxGeometry relative="1" as="geometry" />
        </mxCell>
        <mxCell id="4Yv4w1ldaMEZDNmSyz41-85" value="&lt;font&gt;Оперативный разбор входящих задач&lt;/font&gt;" style="ellipse;whiteSpace=wrap;html=1;align=center;dashed=1;rounded=1;shadow=0;glass=0;strokeColor=#6c8ebf;verticalAlign=middle;swimlaneFillColor=none;fontFamily=Times New Roman;fontSize=12;fontStyle=0;fillColor=#dae8fc;" vertex="1" parent="1">
          <mxGeometry x="361" y="297.5" width="106" height="55" as="geometry" />
        </mxCell>
        <mxCell id="4Yv4w1ldaMEZDNmSyz41-87" value="1" style="shape=rhombus;perimeter=rhombusPerimeter;whiteSpace=wrap;html=1;align=center;rounded=1;shadow=0;glass=0;strokeColor=#005700;verticalAlign=middle;swimlaneFillColor=none;fontFamily=Helvetica;fontSize=12;fontColor=#ffffff;fontStyle=0;fillColor=#008a00;" vertex="1" parent="1">
          <mxGeometry x="490" y="405" width="50" height="50" as="geometry" />
        </mxCell>
        <mxCell id="4Yv4w1ldaMEZDNmSyz41-91" value="3" style="shape=rhombus;perimeter=rhombusPerimeter;whiteSpace=wrap;html=1;align=center;rounded=1;shadow=0;glass=0;strokeColor=#005700;verticalAlign=middle;swimlaneFillColor=none;fontFamily=Helvetica;fontSize=12;fontColor=#ffffff;fontStyle=0;fillColor=#008a00;" vertex="1" parent="1">
          <mxGeometry x="490" y="550" width="50" height="50" as="geometry" />
        </mxCell>
        <mxCell id="4Yv4w1ldaMEZDNmSyz41-96" style="edgeStyle=orthogonalEdgeStyle;rounded=0;orthogonalLoop=1;jettySize=auto;html=1;entryX=-0.014;entryY=0.422;entryDx=0;entryDy=0;entryPerimeter=0;fontFamily=Helvetica;fontSize=12;fontColor=default;fontStyle=0;" edge="1" parent="1" source="4Yv4w1ldaMEZDNmSyz41-91" target="4Yv4w1ldaMEZDNmSyz41-63">
          <mxGeometry relative="1" as="geometry" />
        </mxCell>
        <mxCell id="4Yv4w1ldaMEZDNmSyz41-103" value="" style="edgeStyle=orthogonalEdgeStyle;rounded=0;orthogonalLoop=1;jettySize=auto;html=1;entryX=0;entryY=0.5;entryDx=0;entryDy=0;fontFamily=Helvetica;fontSize=12;fontColor=default;fontStyle=0;" edge="1" parent="1" source="4Yv4w1ldaMEZDNmSyz41-86" target="4Yv4w1ldaMEZDNmSyz41-89">
          <mxGeometry relative="1" as="geometry">
            <mxPoint x="300" y="565" as="sourcePoint" />
            <mxPoint x="570" y="510" as="targetPoint" />
            <Array as="points">
              <mxPoint x="460" y="565" />
              <mxPoint x="460" y="510" />
            </Array>
          </mxGeometry>
        </mxCell>
        <mxCell id="4Yv4w1ldaMEZDNmSyz41-109" style="edgeStyle=orthogonalEdgeStyle;rounded=0;orthogonalLoop=1;jettySize=auto;html=1;entryX=0;entryY=0.5;entryDx=0;entryDy=0;fontFamily=Helvetica;fontSize=12;fontColor=default;fontStyle=0;" edge="1" parent="1" source="4Yv4w1ldaMEZDNmSyz41-89" target="4Yv4w1ldaMEZDNmSyz41-62">
          <mxGeometry relative="1" as="geometry" />
        </mxCell>
        <mxCell id="4Yv4w1ldaMEZDNmSyz41-89" value="2" style="shape=rhombus;perimeter=rhombusPerimeter;whiteSpace=wrap;html=1;align=center;rounded=1;shadow=0;glass=0;strokeColor=#005700;verticalAlign=middle;swimlaneFillColor=none;fontFamily=Helvetica;fontSize=12;fontColor=#ffffff;fontStyle=0;fillColor=#008a00;" vertex="1" parent="1">
          <mxGeometry x="490" y="485" width="50" height="50" as="geometry" />
        </mxCell>
        <mxCell id="4Yv4w1ldaMEZDNmSyz41-107" value="" style="edgeStyle=orthogonalEdgeStyle;rounded=0;orthogonalLoop=1;jettySize=auto;html=1;entryX=0;entryY=0.5;entryDx=0;entryDy=0;fontFamily=Helvetica;fontSize=12;fontColor=default;fontStyle=0;" edge="1" parent="1" source="4Yv4w1ldaMEZDNmSyz41-38" target="4Yv4w1ldaMEZDNmSyz41-86">
          <mxGeometry relative="1" as="geometry">
            <mxPoint x="300" y="565" as="sourcePoint" />
            <mxPoint x="490" y="510" as="targetPoint" />
            <Array as="points" />
          </mxGeometry>
        </mxCell>
        <mxCell id="4Yv4w1ldaMEZDNmSyz41-108" style="edgeStyle=orthogonalEdgeStyle;rounded=0;orthogonalLoop=1;jettySize=auto;html=1;entryX=0;entryY=0.5;entryDx=0;entryDy=0;fontFamily=Helvetica;fontSize=12;fontColor=default;fontStyle=0;" edge="1" parent="1" source="4Yv4w1ldaMEZDNmSyz41-86" target="4Yv4w1ldaMEZDNmSyz41-87">
          <mxGeometry relative="1" as="geometry" />
        </mxCell>
        <mxCell id="4Yv4w1ldaMEZDNmSyz41-86" value="Разбор просрочки" style="ellipse;whiteSpace=wrap;html=1;align=center;dashed=1;rounded=1;shadow=0;glass=0;strokeColor=#6c8ebf;verticalAlign=middle;swimlaneFillColor=none;fontFamily=Times New Roman;fontSize=12;fontStyle=0;fillColor=#dae8fc;" vertex="1" parent="1">
          <mxGeometry x="330" y="545" width="100" height="40" as="geometry" />
        </mxCell>
      </root>
    </mxGraphModel>
  </diagram>
</mxfile>
